<svg width="17" height="16" viewBox="0 0 17 16" fill="none" xmlns="http://www.w3.org/2000/svg">
<path d="M15.8813 14.75V13.25C15.8813 11.8521 14.9253 10.6775 13.6313 10.3445M11.0063 1.46807C12.1058 1.91311 12.8813 2.99098 12.8813 4.25C12.8813 5.50902 12.1058 6.58689 11.0063 7.03193M12.1313 14.75C12.1313 13.3522 12.1313 12.6533 11.903 12.1019C11.5985 11.3669 11.0145 10.7828 10.2794 10.4784C9.72808 10.25 9.02917 10.25 7.63135 10.25H5.38135C3.98352 10.25 3.28461 10.25 2.7333 10.4784C1.99821 10.7828 1.41419 11.3669 1.10971 12.1019C0.881348 12.6533 0.881348 13.3522 0.881348 14.75M9.50635 4.25C9.50635 5.90685 8.1632 7.25 6.50635 7.25C4.84949 7.25 3.50635 5.90685 3.50635 4.25C3.50635 2.59315 4.84949 1.25 6.50635 1.25C8.1632 1.25 9.50635 2.59315 9.50635 4.25Z" stroke="#9395B8" stroke-width="1.35" stroke-linecap="round" stroke-linejoin="round"/>
</svg>
