<svg width="18" height="20" viewBox="0 0 18 20" fill="none" xmlns="http://www.w3.org/2000/svg">
<path d="M4.94596 9.32545L1.77533 3.65173C1.41076 2.99934 1.22847 2.67315 1.25919 2.40607C1.286 2.17306 1.40975 1.96213 1.60008 1.82507C1.81824 1.66797 2.19191 1.66797 2.93926 1.66797H4.80161C5.07935 1.66797 5.21823 1.66797 5.34279 1.70808C5.45302 1.74357 5.55463 1.80165 5.64116 1.8786C5.73895 1.96557 5.80944 2.08522 5.95041 2.32453L9.00009 7.5013L12.0498 2.32453C12.1907 2.08522 12.2612 1.96557 12.359 1.8786C12.4455 1.80165 12.5472 1.74357 12.6574 1.70808C12.7819 1.66797 12.9208 1.66797 13.1986 1.66797H15.0609C15.8083 1.66797 16.1819 1.66797 16.4001 1.82507C16.5904 1.96213 16.7142 2.17306 16.741 2.40607C16.7717 2.67315 16.5894 2.99934 16.2248 3.65173L13.0542 9.32545M7.75009 11.668L9.00009 10.8346V15.0013M7.95842 15.0013H10.0418M12.8303 9.0878C14.9456 11.2031 14.9456 14.6328 12.8303 16.7481C10.7149 18.8635 7.28527 18.8635 5.16992 16.7481C3.05459 14.6328 3.05459 11.2032 5.16992 9.0878C7.28526 6.97247 10.7149 6.97247 12.8303 9.0878Z" stroke="#9395B8" stroke-width="1.5" stroke-linecap="round" stroke-linejoin="round"/>
</svg>
