<svg width="18" height="18" viewBox="0 0 18 18" fill="none" xmlns="http://www.w3.org/2000/svg">
<path d="M6 1.5H2.83333C2.36662 1.5 2.13327 1.5 1.95501 1.59083C1.79821 1.67072 1.67072 1.79821 1.59083 1.95501C1.5 2.13327 1.5 2.36662 1.5 2.83333V6C1.5 6.46671 1.5 6.70007 1.59083 6.87833C1.67072 7.03513 1.79821 7.16261 1.95501 7.24251C2.13327 7.33333 2.36662 7.33333 2.83333 7.33333H6C6.46671 7.33333 6.70007 7.33333 6.87833 7.24251C7.03513 7.16261 7.16261 7.03513 7.24251 6.87833C7.33333 6.70007 7.33333 6.46671 7.33333 6V2.83333C7.33333 2.36662 7.33333 2.13327 7.24251 1.95501C7.16261 1.79821 7.03513 1.67072 6.87833 1.59083C6.70007 1.5 6.46671 1.5 6 1.5Z" stroke="#353754" stroke-width="1.5" stroke-linecap="round" stroke-linejoin="round"/>
<path d="M15.1667 1.5H12C11.5333 1.5 11.2999 1.5 11.1217 1.59083C10.9649 1.67072 10.8374 1.79821 10.7575 1.95501C10.6667 2.13327 10.6667 2.36662 10.6667 2.83333V6C10.6667 6.46671 10.6667 6.70007 10.7575 6.87833C10.8374 7.03513 10.9649 7.16261 11.1217 7.24251C11.2999 7.33333 11.5333 7.33333 12 7.33333H15.1667C15.6334 7.33333 15.8667 7.33333 16.045 7.24251C16.2018 7.16261 16.3293 7.03513 16.4092 6.87833C16.5 6.70007 16.5 6.46671 16.5 6V2.83333C16.5 2.36662 16.5 2.13327 16.4092 1.95501C16.3293 1.79821 16.2018 1.67072 16.045 1.59083C15.8667 1.5 15.6334 1.5 15.1667 1.5Z" stroke="#353754" stroke-width="1.5" stroke-linecap="round" stroke-linejoin="round"/>
<path d="M15.1667 10.6667H12C11.5333 10.6667 11.2999 10.6667 11.1217 10.7575C10.9649 10.8374 10.8374 10.9649 10.7575 11.1217C10.6667 11.2999 10.6667 11.5333 10.6667 12V15.1667C10.6667 15.6334 10.6667 15.8667 10.7575 16.045C10.8374 16.2018 10.9649 16.3293 11.1217 16.4092C11.2999 16.5 11.5333 16.5 12 16.5H15.1667C15.6334 16.5 15.8667 16.5 16.045 16.4092C16.2018 16.3293 16.3293 16.2018 16.4092 16.045C16.5 15.8667 16.5 15.6334 16.5 15.1667V12C16.5 11.5333 16.5 11.2999 16.4092 11.1217C16.3293 10.9649 16.2018 10.8374 16.045 10.7575C15.8667 10.6667 15.6334 10.6667 15.1667 10.6667Z" stroke="#353754" stroke-width="1.5" stroke-linecap="round" stroke-linejoin="round"/>
<path d="M6 10.6667H2.83333C2.36662 10.6667 2.13327 10.6667 1.95501 10.7575C1.79821 10.8374 1.67072 10.9649 1.59083 11.1217C1.5 11.2999 1.5 11.5333 1.5 12V15.1667C1.5 15.6334 1.5 15.8667 1.59083 16.045C1.67072 16.2018 1.79821 16.3293 1.95501 16.4092C2.13327 16.5 2.36662 16.5 2.83333 16.5H6C6.46671 16.5 6.70007 16.5 6.87833 16.4092C7.03513 16.3293 7.16261 16.2018 7.24251 16.045C7.33333 15.8667 7.33333 15.6334 7.33333 15.1667V12C7.33333 11.5333 7.33333 11.2999 7.24251 11.1217C7.16261 10.9649 7.03513 10.8374 6.87833 10.7575C6.70007 10.6667 6.46671 10.6667 6 10.6667Z" stroke="#353754" stroke-width="1.5" stroke-linecap="round" stroke-linejoin="round"/>
</svg>
