<svg width="16" height="18" viewBox="0 0 16 18" fill="none" xmlns="http://www.w3.org/2000/svg">
<path d="M11.3816 6.75V4.5C11.3816 2.84315 10.0385 1.5 8.38163 1.5C6.72477 1.5 5.38162 2.84315 5.38162 4.5V6.75M2.07563 7.76397L1.62563 12.564C1.49768 13.9287 1.43371 14.6111 1.66016 15.1382C1.8591 15.6012 2.20771 15.984 2.65014 16.2253C3.15377 16.5 3.83915 16.5 5.20991 16.5H11.5533C12.9241 16.5 13.6095 16.5 14.1131 16.2253C14.5555 15.984 14.9042 15.6012 15.1031 15.1382C15.3295 14.6111 15.2656 13.9287 15.1376 12.564L14.6876 7.76397C14.5796 6.61151 14.5256 6.03528 14.2664 5.59962C14.0381 5.21594 13.7009 4.90883 13.2976 4.71738C12.8396 4.5 12.2609 4.5 11.1033 4.5L5.65991 4.5C4.50239 4.5 3.92363 4.5 3.46569 4.71738C3.06237 4.90883 2.72513 5.21594 2.49687 5.59962C2.23769 6.03528 2.18367 6.61151 2.07563 7.76397Z" stroke="#9395B8" stroke-width="1.5" stroke-linecap="round" stroke-linejoin="round"/>
</svg>
