<svg width="14" height="14" viewBox="0 0 14 14" fill="none" xmlns="http://www.w3.org/2000/svg">
<path fill-rule="evenodd" clip-rule="evenodd" d="M4.73526 1.5325C5.2847 0.900621 6.09555 0.5 7 0.5C7.90441 0.5 8.71522 0.900581 9.26466 1.53241C10.1001 1.47404 10.9568 1.76411 11.5964 2.40372C12.236 3.04332 12.5261 3.90006 12.4677 4.73546C13.0995 5.2849 13.5 6.09566 13.5 7C13.5 7.90451 13.0993 8.7154 12.4674 9.26485C12.5256 10.1001 12.2355 10.9567 11.596 11.5962C10.9565 12.2357 10.1 12.5257 9.26472 12.4675C8.71528 13.0994 7.90445 13.5 7 13.5C6.0956 13.5 5.2848 13.0994 4.73536 12.4676C3.89994 12.526 3.0432 12.2359 2.40358 11.5963C1.76397 10.9567 1.47391 10.1 1.53227 9.26454C0.900524 8.7151 0.5 7.90435 0.5 7C0.5 6.09561 0.900564 5.28482 1.53237 4.73537C1.47407 3.90003 1.76414 3.04338 2.40369 2.40383C3.04325 1.76427 3.89991 1.4742 4.73526 1.5325ZM9.40687 5.79062C9.56737 5.56591 9.51533 5.25364 9.29062 5.09313C9.06591 4.93263 8.75364 4.98467 8.59313 5.20938L6.4362 8.22909L5.35355 7.14645C5.15829 6.95118 4.84171 6.95118 4.64645 7.14645C4.45118 7.34171 4.45118 7.65829 4.64645 7.85355L6.14645 9.35355C6.25037 9.45748 6.39476 9.51042 6.54124 9.4983C6.68772 9.48617 6.82144 9.41022 6.90687 9.29062L9.40687 5.79062Z" fill="#31C16B"/>
</svg>
