<svg width="17" height="18" viewBox="0 0 17 18" fill="none" xmlns="http://www.w3.org/2000/svg">
<path d="M8.38135 11.25C5.89607 11.25 3.88135 9.23528 3.88135 6.75V2.58333C3.88135 2.27295 3.88135 2.11775 3.92658 1.99348C4.0024 1.78516 4.16651 1.62105 4.37483 1.54523C4.4991 1.5 4.65429 1.5 4.96468 1.5H11.798C12.1084 1.5 12.2636 1.5 12.3879 1.54523C12.5962 1.62105 12.7603 1.78516 12.8361 1.99348C12.8813 2.11775 12.8813 2.27295 12.8813 2.58333V6.75C12.8813 9.23528 10.8666 11.25 8.38135 11.25ZM8.38135 11.25V13.5M12.8813 3H14.7563C15.1058 3 15.2805 3 15.4184 3.05709C15.6021 3.13321 15.7481 3.27922 15.8243 3.46299C15.8813 3.60082 15.8813 3.77554 15.8813 4.125V4.5C15.8813 5.19748 15.8813 5.54622 15.8047 5.83234C15.5966 6.6088 14.9901 7.21528 14.2137 7.42333C13.9276 7.5 13.5788 7.5 12.8813 7.5M3.88135 3H2.00635C1.65689 3 1.48216 3 1.34434 3.05709C1.16056 3.13321 1.01456 3.27922 0.938438 3.46299C0.881348 3.60082 0.881348 3.77554 0.881348 4.125V4.5C0.881348 5.19748 0.881348 5.54622 0.958015 5.83234C1.16607 6.6088 1.77255 7.21528 2.549 7.42333C2.83513 7.5 3.18387 7.5 3.88135 7.5M4.96468 16.5H11.798C11.9821 16.5 12.1313 16.3508 12.1313 16.1667C12.1313 14.6939 10.9374 13.5 9.46468 13.5H7.29801C5.82525 13.5 4.63135 14.6939 4.63135 16.1667C4.63135 16.3508 4.78059 16.5 4.96468 16.5Z" stroke="#9395B8" stroke-width="1.35" stroke-linecap="round" stroke-linejoin="round"/>
</svg>
