<svg width="17" height="16" viewBox="0 0 17 16" fill="none" xmlns="http://www.w3.org/2000/svg">
<path d="M6.13135 14.75V9.2C6.13135 8.77996 6.13135 8.56994 6.2131 8.40951C6.285 8.26839 6.39974 8.15365 6.54086 8.08175C6.70129 8 6.91131 8 7.33135 8H9.43135C9.85139 8 10.0614 8 10.2218 8.08175C10.363 8.15365 10.4777 8.26839 10.5496 8.40951C10.6314 8.56994 10.6314 8.77996 10.6314 9.2V14.75M0.881348 6.125L7.66135 1.04C7.91954 0.846354 8.04864 0.749532 8.19043 0.712209C8.31558 0.679264 8.44712 0.679264 8.57228 0.712209C8.71406 0.749532 8.84316 0.846355 9.10135 1.04L15.8814 6.125M2.38135 5V12.35C2.38135 13.1901 2.38135 13.6101 2.54484 13.931C2.68865 14.2132 2.91812 14.4427 3.20037 14.5865C3.52123 14.75 3.94127 14.75 4.78135 14.75H11.9814C12.8214 14.75 13.2415 14.75 13.5623 14.5865C13.8446 14.4427 14.0741 14.2132 14.2179 13.931C14.3814 13.6101 14.3814 13.1901 14.3814 12.35V5L9.82135 1.58C9.30496 1.19271 9.04677 0.999064 8.7632 0.924418C8.5129 0.858528 8.2498 0.858528 7.9995 0.924418C7.71593 0.999064 7.45774 1.19271 6.94135 1.58L2.38135 5Z" stroke="#06082C" stroke-width="1.35" stroke-linecap="round" stroke-linejoin="round"/>
</svg>
