<svg width="17" height="12" viewBox="0 0 17 12" fill="none" xmlns="http://www.w3.org/2000/svg">
<path d="M11.5633 2.81956C13.3207 4.57692 13.3207 7.42616 11.5633 9.18352M5.19937 9.1835C3.44201 7.42614 3.44201 4.5769 5.19937 2.81954M3.07805 11.3048C0.149115 8.37591 0.149115 3.62717 3.07805 0.698242M13.6846 0.698277C16.6136 3.62721 16.6136 8.37595 13.6846 11.3049M9.88135 6.00154C9.88135 6.82997 9.20977 7.50154 8.38135 7.50154C7.55292 7.50154 6.88135 6.82997 6.88135 6.00154C6.88135 5.17312 7.55292 4.50154 8.38135 4.50154C9.20977 4.50154 9.88135 5.17312 9.88135 6.00154Z" stroke="#9395B8" stroke-width="1.38462" stroke-linecap="round" stroke-linejoin="round"/>
</svg>
