<svg width="111" height="18" viewBox="0 0 111 18" fill="none" xmlns="http://www.w3.org/2000/svg">
<g clip-path="url(#clip0_7720_5990)">
<path d="M52.3322 1.00684H46.7795C45.0768 1.00684 43.6699 2.26536 43.4478 3.96841L41.856 16.9989H45.1137L45.7059 12.2234H47.9805L50.5183 16.9989H54.2942L51.196 11.1359L54.6643 6.92998C56.9224 4.1905 55.6639 1.00716 52.3322 1.00716V1.00684ZM51.5178 5.59709L49.0745 8.6327C48.9264 8.81794 48.6671 8.92882 48.4451 8.92882H46.1129L46.6683 4.26453H50.9993C51.7028 4.26453 51.9989 4.96799 51.5175 5.59709H51.5178Z" fill="black"/>
<path d="M80.8522 1.00684H75.2995C73.5968 1.00684 72.1899 2.26536 71.9678 3.96841L70.376 16.9989H73.6337L74.2259 12.2234H76.5005L79.0383 16.9989H82.8142L79.7161 11.1359L83.1843 6.92998C85.4425 4.1905 84.1839 1.00716 80.8522 1.00716V1.00684ZM80.0379 5.59709L77.5945 8.6327C77.4464 8.81794 77.1872 8.92882 76.9651 8.92882H74.6329L75.1883 4.26453H79.5193C80.2228 4.26453 80.5189 4.96799 80.0375 5.59709H80.0379Z" fill="#FF2410"/>
<path d="M24.3092 1.00684H18.7566C17.0539 1.00684 15.6469 2.26536 15.4248 3.96841L13.833 16.9989H17.0907L17.683 12.2234H21.0147C21.829 12.2234 22.6434 11.8532 23.1988 11.1498L26.6786 6.92965C29.0847 4.00526 27.641 1.00684 24.3092 1.00684ZM23.5317 5.59709L21.0884 8.6327C20.9403 8.81794 20.681 8.92882 20.459 8.92882H18.0896L18.645 4.26453H23.0132C23.7167 4.26453 24.0128 4.96799 23.5314 5.59709H23.5317Z" fill="black"/>
<path d="M35.748 0.858398C32.3422 0.858398 29.307 3.67191 28.8624 7.2254L28.4183 10.742C27.9741 14.2959 30.3431 17.1462 33.7488 17.1462C37.1546 17.1462 40.1899 14.2959 40.6344 10.742L41.0786 7.2254C41.5227 3.67191 39.1534 0.858398 35.748 0.858398ZM37.9689 7.2254L37.5247 10.7792C37.3026 12.4819 35.822 13.8889 34.1562 13.8889C32.4903 13.8889 31.3058 12.4823 31.5279 10.7792L31.9721 7.2254C32.1942 5.48551 33.6748 4.11577 35.3407 4.11577C37.0065 4.11577 38.191 5.48551 37.9689 7.2254Z" fill="black"/>
<path d="M1.80626 5.81919C1.47296 8.59552 3.25003 10.6315 6.02636 10.6315H7.80311C8.69148 10.6315 9.28373 11.2978 9.17285 12.1862C9.06164 13.0746 8.32133 13.7408 7.43295 13.7408H0.843859L0.436523 16.9989H7.09998C9.83946 16.9989 12.0976 14.9628 12.4305 12.2234C12.7639 9.44704 10.9868 7.37384 8.21045 7.37384H6.4337C5.54533 7.37384 4.95308 6.70756 5.06396 5.81919C5.17517 4.93081 5.91548 4.26453 6.80386 4.26453H13.393L13.8003 1.00684H7.21086C4.43453 1.00684 2.13924 3.04286 1.80626 5.81919Z" fill="black"/>
<path d="M101.899 7.37417C102.121 5.63427 103.602 4.26453 105.268 4.26453H109.975L110.382 1.00684H105.675C102.269 1.00684 99.2342 3.82035 98.7897 7.37384L98.3823 10.5944C97.9381 14.1482 100.27 16.9614 103.676 16.9985H108.408L108.815 13.7408H104.083C102.418 13.704 101.27 12.3343 101.492 10.6312L101.899 7.37351V7.37417Z" fill="#FF2410"/>
<path d="M86.3148 3.96776L85.0931 14.0366C84.8711 15.7394 85.9815 16.9982 87.6846 16.9982H95.5694L95.9767 13.7405H88.4249L88.795 10.6309H95.1252L95.5325 7.37319H89.2024L89.5725 4.26356H97.1244L97.5317 1.00586H89.6469C87.9442 1.00586 86.5373 2.26439 86.3152 3.96743L86.3148 3.96776Z" fill="#FF2410"/>
<path d="M57.6626 4.26453H62.1788L60.6242 16.9989H63.8819L65.4365 4.26453H69.9527L70.3601 1.00684H58.0699L57.6626 4.26453Z" fill="black"/>
</g>
<defs>
<clipPath id="clip0_7720_5990">
<rect width="109.946" height="16.2882" fill="white" transform="translate(0.436523 0.858398)"/>
</clipPath>
</defs>
</svg>
