<svg width="18" height="20" viewBox="0 0 18 20" fill="none" xmlns="http://www.w3.org/2000/svg">
<path d="M4.41667 16.6641H3.16667C2.24619 16.6641 1.5 15.9179 1.5 14.9974V3.33073C1.5 2.41025 2.24619 1.66406 3.16667 1.66406H14.8333C15.7538 1.66406 16.5 2.41025 16.5 3.33073V14.9974C16.5 15.9179 15.7538 16.6641 14.8333 16.6641H13.5833M9 15.8307C10.3807 15.8307 11.5 14.7114 11.5 13.3307C11.5 11.95 10.3807 10.8307 9 10.8307C7.61929 10.8307 6.5 11.95 6.5 13.3307C6.5 14.7114 7.61929 15.8307 9 15.8307ZM9 15.8307L9.01787 15.8306L6.35723 18.4912L4.0002 16.1342L6.51638 13.618M9 15.8307L11.6607 18.4912L14.0177 16.1342L11.5015 13.618M6.5 4.9974H11.5M4.83333 7.91406H13.1667" stroke="#9395B8" stroke-width="1.5" stroke-linecap="round" stroke-linejoin="round"/>
</svg>
