<svg width="33" height="32" viewBox="0 0 33 32" fill="none" xmlns="http://www.w3.org/2000/svg">
<rect x="0.5" width="32" height="32" rx="16" fill="url(#paint0_linear_4701_191913)"/>
<path d="M11.2926 23V21.0966L16.3423 16.1463C16.8253 15.6586 17.2277 15.2254 17.5497 14.8466C17.8717 14.4678 18.1132 14.1009 18.2741 13.7457C18.4351 13.3906 18.5156 13.0118 18.5156 12.6094C18.5156 12.1501 18.4115 11.7571 18.2031 11.4304C17.9948 11.099 17.7083 10.8433 17.3438 10.6634C16.9792 10.4834 16.5649 10.3935 16.1009 10.3935C15.6226 10.3935 15.2036 10.4929 14.8438 10.6918C14.4839 10.8859 14.2045 11.1629 14.0057 11.5227C13.8116 11.8826 13.7145 12.3111 13.7145 12.8082H11.2074C11.2074 11.8849 11.4181 11.0824 11.8395 10.4006C12.2609 9.71875 12.8409 9.19081 13.5795 8.81676C14.3229 8.44271 15.1752 8.25568 16.1364 8.25568C17.1117 8.25568 17.9688 8.43797 18.7074 8.80256C19.446 9.16714 20.0189 9.66667 20.4261 10.3011C20.8381 10.9356 21.044 11.66 21.044 12.4744C21.044 13.0189 20.9399 13.554 20.7315 14.0795C20.5232 14.6051 20.1563 15.1875 19.6307 15.8267C19.1098 16.4659 18.3783 17.2401 17.4361 18.1491L14.929 20.6989V20.7983H21.2642V23H11.2926Z" fill="#EEF0F7"/>
<defs>
<linearGradient id="paint0_linear_4701_191913" x1="32.5" y1="19.2" x2="-4.7579" y2="15.4742" gradientUnits="userSpaceOnUse">
<stop stop-color="#878788"/>
<stop offset="0.642486" stop-color="#BFC0C5"/>
<stop offset="1" stop-color="#939499"/>
</linearGradient>
</defs>
</svg>
