<svg width="33" height="32" viewBox="0 0 33 32" fill="none" xmlns="http://www.w3.org/2000/svg">
<rect x="0.5" width="32" height="32" rx="16" fill="url(#paint0_linear_4701_191932)"/>
<path d="M15.5128 23.1989C14.4901 23.1989 13.581 23.0237 12.7855 22.6733C11.9948 22.3229 11.3698 21.8352 10.9105 21.2102C10.4512 20.5852 10.2074 19.8632 10.179 19.044H12.8494C12.8731 19.437 13.0033 19.7803 13.2401 20.0739C13.4768 20.3627 13.7917 20.5876 14.1847 20.7486C14.5777 20.9096 15.018 20.9901 15.5057 20.9901C16.0265 20.9901 16.4882 20.9001 16.8906 20.7202C17.2931 20.5355 17.608 20.2798 17.8352 19.9531C18.0625 19.6264 18.1738 19.25 18.169 18.8239C18.1738 18.3835 18.0601 17.9953 17.8281 17.6591C17.5961 17.3229 17.2599 17.0601 16.8196 16.8707C16.384 16.6813 15.8584 16.5866 15.2429 16.5866H13.9574V14.5554H15.2429C15.7495 14.5554 16.1922 14.4678 16.571 14.2926C16.9545 14.1174 17.2552 13.8712 17.473 13.554C17.6908 13.232 17.7973 12.8603 17.7926 12.4389C17.7973 12.027 17.705 11.6695 17.5156 11.3665C17.331 11.0587 17.0682 10.8196 16.7273 10.6491C16.3911 10.4787 15.9957 10.3935 15.5412 10.3935C15.0961 10.3935 14.6842 10.474 14.3054 10.6349C13.9266 10.7959 13.6212 11.0256 13.3892 11.3239C13.1572 11.6174 13.0341 11.9678 13.0199 12.375H10.4844C10.5033 11.5606 10.7377 10.8456 11.1875 10.2301C11.642 9.60985 12.2481 9.12689 13.0057 8.78125C13.7633 8.43087 14.6132 8.25568 15.5554 8.25568C16.526 8.25568 17.3688 8.43797 18.0838 8.80256C18.8035 9.1624 19.3598 9.64773 19.7528 10.2585C20.1458 10.8693 20.3423 11.544 20.3423 12.2827C20.3471 13.1018 20.1056 13.7884 19.6179 14.3423C19.1349 14.8963 18.5005 15.2585 17.7145 15.429V15.5426C18.7372 15.6847 19.5208 16.0634 20.0653 16.679C20.6146 17.2898 20.8868 18.0497 20.8821 18.9588C20.8821 19.7732 20.6501 20.5024 20.1861 21.1463C19.7268 21.7855 19.0923 22.2874 18.2827 22.652C17.4777 23.0166 16.5545 23.1989 15.5128 23.1989Z" fill="#EEF0F7"/>
<defs>
<linearGradient id="paint0_linear_4701_191932" x1="32.5" y1="19.2" x2="-4.7579" y2="15.4742" gradientUnits="userSpaceOnUse">
<stop stop-color="#74391D"/>
<stop offset="0.642486" stop-color="#C46236"/>
<stop offset="1" stop-color="#FF9B67"/>
</linearGradient>
</defs>
</svg>
