<svg width="20" height="14" viewBox="0 0 20 14" fill="none" xmlns="http://www.w3.org/2000/svg">
<path d="M18.3332 4.44411C18.3332 3.93926 18.3332 3.68684 18.2333 3.56995C18.1467 3.46853 18.0168 3.41471 17.8838 3.42518C17.7306 3.43724 17.5521 3.61573 17.1951 3.97271L14.1665 7.0013L17.1951 10.0299C17.5521 10.3869 17.7306 10.5654 17.8838 10.5774C18.0168 10.5879 18.1467 10.5341 18.2333 10.4327C18.3332 10.3158 18.3332 10.0633 18.3332 9.55849V4.44411Z" stroke="#9395B8" stroke-width="1.5" stroke-linecap="round" stroke-linejoin="round"/>
<path d="M1.6665 5.16797C1.6665 3.76784 1.6665 3.06777 1.93899 2.53299C2.17867 2.06259 2.56112 1.68014 3.03153 1.44045C3.56631 1.16797 4.26637 1.16797 5.6665 1.16797H10.1665C11.5666 1.16797 12.2667 1.16797 12.8015 1.44045C13.2719 1.68014 13.6543 2.06259 13.894 2.53299C14.1665 3.06777 14.1665 3.76784 14.1665 5.16797V8.83464C14.1665 10.2348 14.1665 10.9348 13.894 11.4696C13.6543 11.94 13.2719 12.3225 12.8015 12.5622C12.2667 12.8346 11.5666 12.8346 10.1665 12.8346H5.6665C4.26637 12.8346 3.56631 12.8346 3.03153 12.5622C2.56112 12.3225 2.17867 11.94 1.93899 11.4696C1.6665 10.9348 1.6665 10.2348 1.6665 8.83464V5.16797Z" stroke="#9395B8" stroke-width="1.5" stroke-linecap="round" stroke-linejoin="round"/>
</svg>
