<svg width="20" height="14" viewBox="0 0 20 14" fill="none" xmlns="http://www.w3.org/2000/svg">
<path d="M1.69654 7.26867C1.63897 7.09594 1.63891 6.90895 1.69638 6.73619C2.85335 3.2581 6.13424 0.75 10.0009 0.75C13.8658 0.75 17.1454 3.25577 18.3038 6.73134C18.3614 6.90406 18.3615 7.09106 18.304 7.26381C17.147 10.7419 13.8661 13.25 9.99946 13.25C6.13458 13.25 2.85494 10.7442 1.69654 7.26867Z" stroke="#9395B8" stroke-width="1.5" stroke-linecap="round" stroke-linejoin="round"/>
<path d="M12.5002 7C12.5002 8.38071 11.381 9.5 10.0002 9.5C8.61953 9.5 7.50025 8.38071 7.50025 7C7.50025 5.61929 8.61953 4.5 10.0002 4.5C11.381 4.5 12.5002 5.61929 12.5002 7Z" stroke="#9395B8" stroke-width="1.5" stroke-linecap="round" stroke-linejoin="round"/>
</svg>
